<?xml version="1.0" encoding="utf-8"?>
<!-- Generator: Adobe Illustrator 27.8.1, SVG Export Plug-In . SVG Version: 6.00 Build 0)  -->
<svg version="1.1" id="Layer_1" xmlns="http://www.w3.org/2000/svg" xmlns:xlink="http://www.w3.org/1999/xlink" x="0px" y="0px"
	 viewBox="0 0 60 31.5" style="enable-background:new 0 0 60 31.5;" xml:space="preserve">
<style type="text/css">
	.st0{fill:#231F20;}
</style>
<g>
	<path class="st0" d="M59.5,0.5v30.6H28.9V0.5H59.5 M60,0H28.5v31.5H60V0L60,0z"/>
	<g>
		<path class="st0" d="M30.3,8l1.3-3.7H32L33.2,8h-0.5l-1-3l-1,3H30.3z M30.9,7.2V6.7h1.8v0.5H30.9z"/>
		<path class="st0" d="M34.9,8.1c-0.2,0-0.3,0-0.5-0.1S34.2,7.9,34,7.9c-0.1-0.1-0.3-0.2-0.4-0.3L34,7.2c0.1,0.1,0.3,0.2,0.4,0.3
			c0.2,0.1,0.3,0.1,0.5,0.1c0.3,0,0.4,0,0.6-0.1c0.1-0.1,0.2-0.2,0.2-0.4v0c0-0.1,0-0.2-0.1-0.3c-0.1-0.1-0.2-0.1-0.3-0.2
			c-0.1,0-0.2-0.1-0.4-0.1c-0.1,0-0.3-0.1-0.4-0.1c-0.1,0-0.3-0.1-0.4-0.2C34.1,6.1,34,6,33.9,5.9c-0.1-0.1-0.1-0.3-0.1-0.5v0
			c0-0.3,0.1-0.6,0.3-0.8c0.2-0.2,0.5-0.3,0.9-0.3c0.2,0,0.4,0,0.5,0.1c0.2,0.1,0.4,0.2,0.5,0.3l-0.3,0.4c-0.1-0.1-0.3-0.2-0.4-0.2
			c-0.1-0.1-0.3-0.1-0.4-0.1c-0.2,0-0.4,0.1-0.6,0.2c-0.1,0.1-0.2,0.2-0.2,0.4v0c0,0.1,0,0.2,0.1,0.3c0.1,0.1,0.2,0.1,0.3,0.2
			S35,5.9,35.1,6c0.1,0,0.3,0.1,0.4,0.1c0.1,0,0.2,0.1,0.3,0.2C36,6.3,36,6.4,36.1,6.5c0.1,0.1,0.1,0.3,0.1,0.5v0
			c0,0.3-0.1,0.6-0.3,0.8C35.6,8,35.3,8.1,34.9,8.1z"/>
		<path class="st0" d="M36.6,8l1.3-3.7h0.4L39.6,8h-0.5l-1-3l-1,3H36.6z M37.2,7.2V6.7H39v0.5H37.2z"/>
		<path class="st0" d="M40.1,8V4.4h0.4l2.1,2.8l-0.1,0.1V4.4H43V8h-0.4l-2.1-2.8l0.1-0.1V8L40.1,8L40.1,8z"/>
		<polygon class="st0" points="29.2,8.2 29.3,11.9 29.7,11.9 29.7,8.2 		"/>
		<polygon class="st0" points="29.2,4.3 29.3,8 29.7,8 29.7,4.3 		"/>
		<path class="st0" d="M31.8,11.9c-0.2,0-0.5-0.1-0.6-0.2c-0.2-0.1-0.3-0.3-0.4-0.5s-0.2-0.4-0.2-0.7v-1c0-0.3,0.1-0.5,0.2-0.7
			s0.2-0.4,0.4-0.5c0.2-0.1,0.4-0.2,0.6-0.2s0.5,0.1,0.6,0.2c0.2,0.1,0.3,0.3,0.4,0.5C32.9,9,33,9.2,33,9.5v1c0,0.3-0.1,0.5-0.2,0.7
			c-0.1,0.2-0.2,0.4-0.4,0.5C32.2,11.8,32,11.9,31.8,11.9z M31.8,11.4c0.2,0,0.4-0.1,0.5-0.2c0.1-0.2,0.2-0.4,0.2-0.6V9.5
			c0-0.3-0.1-0.5-0.2-0.6c-0.1-0.2-0.3-0.2-0.5-0.2c-0.2,0-0.4,0.1-0.5,0.2C31.1,9,31,9.2,31,9.5v1.1c0,0.2,0.1,0.4,0.2,0.6
			C31.4,11.3,31.5,11.4,31.8,11.4z"/>
		<path class="st0" d="M33.7,11.9V8.2h0.5v3.7H33.7z M34,10.3V9.8h1.9v0.5H34z M35.7,11.9V8.2h0.5v3.7H35.7z"/>
		<path class="st0" d="M36.6,11.9l1.3-3.7h0.4l1.3,3.7h-0.5l-1-3l-1,3H36.6z M37.2,11v-0.5H39V11H37.2z"/>
		<path class="st0" d="M41.6,10.6l1-2.4H43v3.7h-0.5V9.1l0,0.2l-0.9,2.1h-0.3l-0.9-2l0-0.2v2.7h-0.5V8.2h0.5L41.6,10.6z"/>
		<path class="st0" d="M45.4,10.6l1-2.4h0.5v3.7h-0.5V9.1l0,0.2l-0.9,2.1h-0.3l-0.9-2l0-0.2v2.7H44V8.2h0.5L45.4,10.6z"/>
		<path class="st0" d="M47.4,11.9l1.3-3.7h0.4l1.3,3.7h-0.5l-1-3l-1,3H47.4z M48,11v-0.5h1.8V11H48z"/>
		<path class="st0" d="M50.9,11.9V8.2h0.5v3.7H50.9z M51.2,11.9v-0.5H52c0.3,0,0.5-0.1,0.6-0.2c0.1-0.1,0.2-0.3,0.2-0.6V9.5
			c0-0.3-0.1-0.5-0.2-0.6c-0.1-0.1-0.3-0.2-0.6-0.2h-0.8V8.2H52c0.4,0,0.7,0.1,1,0.3c0.2,0.2,0.3,0.6,0.3,1v1c0,0.3-0.1,0.5-0.2,0.7
			c-0.1,0.2-0.3,0.3-0.5,0.4c-0.2,0.1-0.4,0.2-0.7,0.2L51.2,11.9L51.2,11.9z"/>
	</g>
	<g>
		<polygon class="st0" points="28.2,8.9 27.5,10.6 26.4,8.2 26,8.2 26,11.9 26.5,11.9 26.5,9.4 27.3,11.3 27.6,11.3 28.2,10 		"/>
		<polygon class="st0" points="26,4.3 26,8 26.5,8 26.5,4.3 		"/>
		<rect x="26.3" y="6" class="st0" width="1.9" height="0.5"/>
	</g>
	<g>
		<path class="st0" d="M0,19.7v-0.5h1.1v0.5H0z M0.8,21.2c-0.2,0-0.4-0.1-0.4-0.2s-0.1-0.3-0.1-0.5v-3h0.5v3c0,0.1,0,0.1,0,0.1
			c0,0,0.1,0.1,0.1,0.1h0.2v0.5L0.8,21.2L0.8,21.2z"/>
		<path class="st0" d="M1.8,21.2v-3.7h0.5v3.7H1.8z M3.3,21.2v-1.6c0-0.2,0-0.3-0.1-0.4C3.1,19.1,2.9,19,2.8,19
			c-0.2,0-0.3,0-0.4,0.1c-0.1,0.1-0.1,0.2-0.1,0.4L2.2,19c0.1-0.2,0.2-0.3,0.3-0.4c0.1-0.1,0.3-0.1,0.4-0.1c0.3,0,0.5,0.1,0.6,0.3
			c0.1,0.2,0.2,0.4,0.2,0.8v1.6L3.3,21.2L3.3,21.2z"/>
		<path class="st0" d="M4.5,18.1v-0.5H5v0.5H4.5z M4.5,21.2v-2.6H5v2.6H4.5z"/>
		<path class="st0" d="M5.8,21.2v-2.6h0.5v2.6H5.8z M7.3,21.2v-1.6c0-0.2,0-0.3-0.1-0.4C7,19.1,6.9,19,6.7,19c-0.2,0-0.3,0-0.4,0.1
			s-0.1,0.2-0.1,0.4L6.2,19c0.1-0.2,0.2-0.3,0.3-0.4c0.1-0.1,0.3-0.1,0.4-0.1c0.3,0,0.5,0.1,0.6,0.3c0.1,0.2,0.2,0.4,0.2,0.8v1.6
			L7.3,21.2L7.3,21.2z"/>
		<path class="st0" d="M8.5,21.2v-3.7H9v3.7H8.5z M8.7,20.8l0-0.6l1.3-1.6h0.6L8.7,20.8z M10.1,21.2l-0.9-1.5l0.3-0.3l1.1,1.9H10.1z
			"/>
		<path class="st0" d="M13.3,21.3c-0.3,0-0.6-0.1-0.8-0.3c-0.2-0.2-0.3-0.5-0.3-0.8v-0.4c0-0.4,0.1-0.6,0.3-0.8
			c0.2-0.2,0.4-0.3,0.8-0.3c0.3,0,0.6,0.1,0.8,0.3c0.2,0.2,0.3,0.5,0.3,0.8v0.4c0,0.4-0.1,0.6-0.3,0.8
			C13.9,21.2,13.7,21.3,13.3,21.3z M13.3,20.8c0.2,0,0.3-0.1,0.4-0.2c0.1-0.1,0.1-0.3,0.1-0.5v-0.4c0-0.2,0-0.4-0.1-0.5
			c-0.1-0.1-0.2-0.2-0.4-0.2c-0.2,0-0.3,0.1-0.4,0.2c-0.1,0.1-0.1,0.3-0.1,0.5v0.4c0,0.2,0,0.4,0.1,0.5C13,20.7,13.2,20.8,13.3,20.8
			z"/>
		<path class="st0" d="M15.5,18.6v1.6c0,0.2,0,0.3,0.1,0.4c0.1,0.1,0.2,0.2,0.4,0.2s0.3,0,0.4-0.1c0.1-0.1,0.1-0.2,0.1-0.4l0,0.5
			c0,0.1-0.1,0.2-0.2,0.3c-0.1,0.1-0.3,0.1-0.4,0.1c-0.3,0-0.5-0.1-0.6-0.3c-0.1-0.2-0.2-0.4-0.2-0.8v-1.6H15.5z M16.5,21.2v-2.6H17
			v2.6H16.5z"/>
		<path class="st0" d="M17.5,19.7v-0.5h1.1v0.5H17.5z M18.4,21.2c-0.2,0-0.4-0.1-0.4-0.2c-0.1-0.1-0.1-0.3-0.1-0.5v-3h0.5v3
			c0,0.1,0,0.1,0,0.1c0,0,0.1,0.1,0.1,0.1h0.2v0.5L18.4,21.2L18.4,21.2z"/>
		<path class="st0" d="M20.2,21.3c-0.2,0-0.4,0-0.6-0.1c-0.2-0.1-0.3-0.2-0.5-0.3l0.3-0.4c0.1,0.1,0.3,0.2,0.4,0.2
			c0.1,0.1,0.3,0.1,0.4,0.1c0.2,0,0.3,0,0.4-0.1c0.1-0.1,0.1-0.2,0.1-0.3c0-0.1,0-0.2-0.1-0.2c-0.1,0-0.1-0.1-0.3-0.1
			c-0.1,0-0.2,0-0.3,0c-0.1,0-0.2,0-0.3,0c-0.1,0-0.2,0-0.3-0.1c-0.1,0-0.1-0.1-0.2-0.2c0-0.1-0.1-0.2-0.1-0.4
			c0-0.3,0.1-0.5,0.2-0.6s0.4-0.2,0.7-0.2c0.2,0,0.4,0,0.5,0.1c0.2,0.1,0.3,0.1,0.5,0.3l-0.3,0.4c-0.1-0.1-0.2-0.1-0.4-0.2
			c-0.1,0-0.2-0.1-0.4-0.1c-0.2,0-0.3,0-0.4,0.1c-0.1,0.1-0.1,0.1-0.1,0.3c0,0.1,0,0.1,0.1,0.2c0.1,0,0.1,0.1,0.2,0.1
			c0.1,0,0.2,0,0.3,0c0.1,0,0.2,0,0.3,0c0.1,0,0.2,0.1,0.3,0.1c0.1,0.1,0.2,0.1,0.2,0.2c0.1,0.1,0.1,0.2,0.1,0.4
			c0,0.3-0.1,0.5-0.3,0.6C20.8,21.2,20.5,21.3,20.2,21.3z"/>
		<path class="st0" d="M21.9,18.1v-0.5h0.5v0.5H21.9z M21.9,21.2v-2.6h0.5v2.6H21.9z"/>
		<path class="st0" d="M23.9,21.3c-0.3,0-0.5-0.1-0.6-0.3c-0.1-0.2-0.2-0.4-0.2-0.8v-0.6c0-0.3,0.1-0.6,0.2-0.8
			c0.1-0.2,0.4-0.3,0.6-0.3c0.1,0,0.3,0,0.4,0.1c0.1,0.1,0.2,0.2,0.3,0.3l-0.1,0.5c0-0.1,0-0.2-0.1-0.3c0-0.1-0.1-0.1-0.2-0.2
			C24.2,19,24.1,19,24,19c-0.2,0-0.3,0.1-0.4,0.2c-0.1,0.1-0.1,0.3-0.1,0.4v0.6c0,0.2,0,0.3,0.1,0.4c0.1,0.1,0.2,0.2,0.4,0.2
			c0.1,0,0.2,0,0.3-0.1c0.1,0,0.1-0.1,0.2-0.2c0-0.1,0.1-0.2,0.1-0.3l0,0.6c0,0.1-0.1,0.2-0.2,0.3C24.2,21.2,24.1,21.3,23.9,21.3z
			 M24.5,21.2v-3.7H25v3.7H24.5z"/>
		<path class="st0" d="M26.7,21.3c-0.3,0-0.6-0.1-0.8-0.3c-0.2-0.2-0.3-0.5-0.3-0.9v-0.3c0-0.4,0.1-0.7,0.3-0.9
			c0.2-0.2,0.4-0.3,0.8-0.3c0.3,0,0.6,0.1,0.7,0.4c0.2,0.2,0.3,0.6,0.3,1v0.2H26v-0.4h1.2c0-0.2-0.1-0.4-0.2-0.5
			C27,19.1,26.9,19,26.7,19c-0.2,0-0.3,0.1-0.4,0.2c-0.1,0.1-0.2,0.3-0.2,0.5v0.3c0,0.2,0.1,0.4,0.2,0.5c0.1,0.1,0.3,0.2,0.5,0.2
			c0.1,0,0.2,0,0.3-0.1c0.1,0,0.2-0.1,0.3-0.2l0.3,0.3c-0.1,0.1-0.3,0.2-0.4,0.3C27.1,21.2,26.9,21.3,26.7,21.3z"/>
		<path class="st0" d="M29.5,19.7v-0.5h1.1v0.5H29.5z M30.3,21.2c-0.2,0-0.4-0.1-0.4-0.2c-0.1-0.1-0.1-0.3-0.1-0.5v-3h0.5v3
			c0,0.1,0,0.1,0,0.1c0,0,0.1,0.1,0.1,0.1h0.2v0.5L30.3,21.2L30.3,21.2z"/>
		<path class="st0" d="M31.3,21.2v-3.7h0.5v3.7H31.3z M32.8,21.2v-1.6c0-0.2,0-0.3-0.1-0.4S32.4,19,32.3,19c-0.2,0-0.3,0-0.4,0.1
			c-0.1,0.1-0.1,0.2-0.1,0.4L31.7,19c0.1-0.2,0.2-0.3,0.3-0.4c0.1-0.1,0.3-0.1,0.4-0.1c0.3,0,0.5,0.1,0.6,0.3
			c0.1,0.2,0.2,0.4,0.2,0.8v1.6L32.8,21.2L32.8,21.2z"/>
		<path class="st0" d="M35,21.3c-0.3,0-0.6-0.1-0.8-0.3c-0.2-0.2-0.3-0.5-0.3-0.9v-0.3c0-0.4,0.1-0.7,0.3-0.9
			c0.2-0.2,0.4-0.3,0.8-0.3c0.3,0,0.6,0.1,0.7,0.4c0.2,0.2,0.3,0.6,0.3,1v0.2h-1.7v-0.4h1.2c0-0.2-0.1-0.4-0.2-0.5
			C35.3,19.1,35.1,19,35,19c-0.2,0-0.3,0.1-0.4,0.2c-0.1,0.1-0.2,0.3-0.2,0.5v0.3c0,0.2,0.1,0.4,0.2,0.5c0.1,0.1,0.3,0.2,0.5,0.2
			c0.1,0,0.2,0,0.3-0.1c0.1,0,0.2-0.1,0.3-0.2l0.3,0.3c-0.1,0.1-0.3,0.2-0.4,0.3C35.3,21.2,35.2,21.3,35,21.3z"/>
		<path class="st0" d="M37.9,21.2v-3.7h0.5v3.7H37.9z M39.1,21.3c-0.2,0-0.3,0-0.4-0.1c-0.1-0.1-0.2-0.2-0.3-0.3l0-0.5
			c0,0.1,0,0.2,0.1,0.3c0,0.1,0.1,0.1,0.2,0.2c0.1,0,0.2,0.1,0.3,0.1c0.2,0,0.3-0.1,0.4-0.2c0.1-0.1,0.1-0.2,0.1-0.4v-0.6
			c0-0.2,0-0.3-0.1-0.4c-0.1-0.1-0.2-0.2-0.4-0.2c-0.1,0-0.2,0-0.3,0.1c-0.1,0-0.1,0.1-0.2,0.2c0,0.1-0.1,0.2-0.1,0.3L38.4,19
			c0.1-0.2,0.2-0.3,0.3-0.4c0.1-0.1,0.3-0.1,0.4-0.1c0.3,0,0.5,0.1,0.6,0.3s0.2,0.4,0.2,0.8v0.6c0,0.3-0.1,0.6-0.2,0.8
			C39.5,21.2,39.3,21.3,39.1,21.3z"/>
		<path class="st0" d="M41.6,21.3c-0.3,0-0.6-0.1-0.8-0.3c-0.2-0.2-0.3-0.5-0.3-0.8v-0.4c0-0.4,0.1-0.6,0.3-0.8
			c0.2-0.2,0.4-0.3,0.8-0.3s0.6,0.1,0.8,0.3c0.2,0.2,0.3,0.5,0.3,0.8v0.4c0,0.4-0.1,0.6-0.3,0.8C42.1,21.2,41.9,21.3,41.6,21.3z
			 M41.6,20.8c0.2,0,0.3-0.1,0.4-0.2c0.1-0.1,0.1-0.3,0.1-0.5v-0.4c0-0.2,0-0.4-0.1-0.5c-0.1-0.1-0.2-0.2-0.4-0.2
			c-0.2,0-0.3,0.1-0.4,0.2c-0.1,0.1-0.1,0.3-0.1,0.5v0.4c0,0.2,0,0.4,0.1,0.5C41.3,20.7,41.4,20.8,41.6,20.8z"/>
		<path class="st0" d="M43,21.2l0.9-1.4l0.2,0.5l-0.6,1H43z M44.7,21.2L43.9,20L43,18.6h0.5l0.7,1.2l0.9,1.4L44.7,21.2L44.7,21.2z
			 M44.3,20l-0.2-0.5l0.5-0.9h0.5L44.3,20z"/>
	</g>
</g>
</svg>
