<?xml version="1.0" encoding="utf-8"?>
<!-- Generator: Adobe Illustrator 28.0.0, SVG Export Plug-In . SVG Version: 6.00 Build 0)  -->
<svg version="1.1" id="Layer_1" xmlns="http://www.w3.org/2000/svg" xmlns:xlink="http://www.w3.org/1999/xlink" x="0px" y="0px"
	 viewBox="0 0 1366 768" style="enable-background:new 0 0 1366 768;" xml:space="preserve">
<style type="text/css">
	.st0{fill:#FFFFFF;}
</style>
<g>
	<path class="st0" d="M1188.51,122.21v523.59H664.93V122.21H1188.51 M1196.72,114h-540v540h540V114L1196.72,114z"/>
	<g>
		<path class="st0" d="M687.6,251.68l21.95-62.88h7.12l21.95,62.88h-9.01l-16.5-50.72l-16.5,50.72H687.6z M697.71,237.89v-8.39
			h31.32v8.39H697.71z"/>
		<path class="st0" d="M767.42,252.33c-2.89,0-5.62-0.29-8.17-0.87c-2.55-0.58-4.94-1.44-7.17-2.6c-2.23-1.15-4.31-2.59-6.24-4.32
			l5.2-6.75c2.27,2.08,4.76,3.63,7.49,4.67c2.73,1.04,5.69,1.56,8.89,1.56c4.31,0,7.66-0.85,10.03-2.55
			c2.37-1.7,3.56-4.08,3.56-7.13v-0.04c0-2.39-0.6-4.22-1.8-5.49c-1.2-1.27-2.78-2.21-4.73-2.83c-1.95-0.62-4.09-1.13-6.41-1.53
			c-2.24-0.4-4.5-0.88-6.78-1.43c-2.28-0.55-4.37-1.41-6.28-2.57c-1.91-1.17-3.45-2.85-4.61-5.04c-1.16-2.19-1.74-5.12-1.74-8.78
			v-0.04c0-5.85,1.84-10.38,5.53-13.6c3.68-3.22,8.89-4.82,15.6-4.82c3.19,0,6.32,0.54,9.38,1.62c3.06,1.08,6.03,2.73,8.93,4.95
			l-4.75,7.01c-2.27-1.79-4.52-3.11-6.78-3.98c-2.25-0.87-4.51-1.3-6.78-1.3c-4.07,0-7.23,0.86-9.48,2.57
			c-2.25,1.72-3.38,4.14-3.38,7.29v0.04c0,2.36,0.66,4.17,1.97,5.4c1.31,1.24,3.02,2.16,5.14,2.75c2.12,0.59,4.39,1.15,6.82,1.67
			c2.18,0.46,4.37,1.02,6.55,1.66c2.18,0.65,4.17,1.59,5.96,2.81c1.79,1.23,3.22,2.9,4.3,5.04c1.08,2.13,1.62,4.92,1.62,8.35v0.09
			c0,5.79-1.91,10.28-5.73,13.45C779.73,250.75,774.35,252.33,767.42,252.33z"/>
		<path class="st0" d="M796.13,251.68l21.95-62.88h7.12l21.95,62.88h-9.01l-16.5-50.72l-16.5,50.72H796.13z M806.25,237.89v-8.39
			h31.32v8.39H806.25z"/>
		<path class="st0" d="M855.56,251.64v-62.83h7.58l35.68,48.61l-0.98,1.13v-49.73h8.27v62.83h-7.66l-35.6-47.87l0.98-1.13v48.99
			H855.56z"/>
		<polygon class="st0" points="670.14,254.05 670.19,316.92 678.34,316.92 678.34,254.05 		"/>
		<polygon class="st0" points="670.14,188.39 670.19,251.27 678.34,251.27 678.34,188.39 		"/>
		<path class="st0" d="M713.11,317.57c-4.2,0-7.88-0.96-11.01-2.88c-3.14-1.92-5.58-4.62-7.31-8.11c-1.73-3.49-2.6-7.55-2.6-12.19
			v-17.82c0-4.67,0.87-8.74,2.6-12.22s4.17-6.17,7.31-8.09c3.14-1.92,6.81-2.88,11.01-2.88c4.2,0,7.87,0.96,11.01,2.88
			c3.14,1.92,5.58,4.61,7.31,8.09c1.73,3.47,2.6,7.54,2.6,12.22v17.82c0,4.64-0.87,8.71-2.6,12.19c-1.73,3.49-4.17,6.19-7.31,8.11
			C720.99,316.61,717.31,317.57,713.11,317.57z M713.11,308.88c3.74,0,6.74-1.3,8.99-3.89c2.25-2.6,3.38-6.03,3.38-10.29v-18.42
			c0-4.29-1.13-7.73-3.38-10.31s-5.25-3.87-8.99-3.87c-3.71,0-6.7,1.29-8.97,3.87c-2.27,2.58-3.4,6.02-3.4,10.31v18.42
			c0,4.27,1.13,7.7,3.4,10.29C706.41,307.58,709.4,308.88,713.11,308.88z"/>
		<path class="st0" d="M746.48,316.92v-62.88h8.35v62.88H746.48z M751.68,290.15v-8.39h33.04v8.39H751.68z M780.3,316.92v-62.88
			h8.35v62.88H780.3z"/>
		<path class="st0" d="M796.13,316.92l21.95-62.88h7.12l21.95,62.88h-9.01l-16.5-50.72l-16.5,50.72H796.13z M806.25,303.13v-8.39
			h31.32v8.39H806.25z"/>
		<path class="st0" d="M880.83,295.56l17.48-41.51h7.82v62.88h-8.15v-47.09l0.41,2.77l-14.66,35.59h-5.81l-14.66-34.72l0.41-3.63
			v47.09h-8.15v-62.88h7.82L880.83,295.56z"/>
		<path class="st0" d="M947.44,295.56l17.48-41.51h7.82v62.88h-8.15v-47.09l0.41,2.77l-14.66,35.59h-5.81l-14.66-34.72l0.41-3.63
			v47.09h-8.15v-62.88h7.82L947.44,295.56z"/>
		<path class="st0" d="M980.93,316.92l21.95-62.88h7.12l21.95,62.88h-9.01l-16.5-50.72l-16.5,50.72H980.93z M991.05,303.13v-8.39
			h31.32v8.39H991.05z"/>
		<path class="st0" d="M1040.96,316.92v-62.88h8.35v62.88H1040.96z M1046.61,316.92v-8.39h13.47c4.4,0,7.8-1.2,10.22-3.61
			c2.42-2.41,3.62-5.8,3.62-10.18v-18.51c0-4.38-1.21-7.78-3.62-10.18s-5.82-3.61-10.22-3.61h-13.47v-8.39h13.23
			c7.21,0,12.78,1.97,16.73,5.9c3.94,3.94,5.92,9.48,5.92,16.63v17.82c0,4.76-0.89,8.82-2.66,12.17c-1.77,3.36-4.35,5.92-7.74,7.7
			c-3.39,1.77-7.48,2.66-12.28,2.66H1046.61z"/>
	</g>
	<g>
		<polygon class="st0" points="651.8,265.99 639.61,295.56 622.13,254.05 614.31,254.05 614.31,316.92 622.46,316.92 622.46,274.43 
			636.71,308.19 642.52,308.19 651.8,285.65 		"/>
		<polygon class="st0" points="614.05,188.39 614.1,251.27 622.24,251.27 622.24,188.39 		"/>
		<rect x="619.51" y="216.52" class="st0" width="32.29" height="8.39"/>
	</g>
	<g>
		<path class="st0" d="M169.28,451.49v-7.96h19.16v7.96H169.28z M183.61,477.46c-3.49,0-6.03-1.02-7.6-3.07
			c-1.57-2.05-2.35-4.99-2.35-8.82v-51.01h8.35v51.1c0,1.07,0.2,1.9,0.61,2.51c0.41,0.6,1.01,0.91,1.8,0.91h4.01v8.39H183.61z"/>
		<path class="st0" d="M199.91,477.25v-62.88h8.35v62.88H199.91z M225.71,477.25v-27.2c0-3.17-0.77-5.62-2.31-7.35
			c-1.54-1.73-3.73-2.6-6.57-2.6c-2.73,0-4.84,0.75-6.33,2.25c-1.49,1.5-2.23,3.62-2.23,6.36l-0.86-8.65
			c1.31-2.65,3.02-4.71,5.14-6.16c2.12-1.46,4.46-2.18,7.02-2.18c4.61,0,8.18,1.59,10.71,4.78c2.52,3.18,3.79,7.69,3.79,13.51v27.24
			H225.71z"/>
		<path class="st0" d="M246.75,423.19v-8.82h8.35v8.82H246.75z M246.75,477.25v-44.89h8.35v44.89H246.75z"/>
		<path class="st0" d="M267.8,477.25v-44.89h8.35v44.89H267.8z M293.59,477.25v-27.2c0-3.17-0.77-5.62-2.31-7.35
			c-1.54-1.73-3.73-2.6-6.57-2.6c-2.73,0-4.84,0.76-6.33,2.29c-1.49,1.53-2.23,3.68-2.23,6.44l-0.86-8.65
			c1.31-2.71,3.02-4.8,5.14-6.27c2.12-1.47,4.46-2.21,7.02-2.21c4.61,0,8.18,1.59,10.71,4.78c2.52,3.18,3.79,7.69,3.79,13.51v27.24
			H293.59z"/>
		<path class="st0" d="M314.64,477.25v-62.88h8.35v62.88H314.64z M317.71,470.67l0.53-10.47l21.87-27.85h9.83L317.71,470.67z
			 M342.93,477.25l-14.82-25.9l5.36-5.88l18.55,31.78H342.93z"/>
		<path class="st0" d="M397.8,477.9c-5.57,0-9.88-1.71-12.94-5.12c-3.06-3.42-4.59-8.22-4.59-14.42v-7.31
			c0-6.14,1.53-10.9,4.59-14.27s7.37-5.06,12.94-5.06c5.57,0,9.88,1.69,12.94,5.06c3.06,3.37,4.59,8.13,4.59,14.27v7.44
			c0,6.17-1.53,10.95-4.59,14.34C407.68,476.2,403.37,477.9,397.8,477.9z M397.8,469.51c2.92,0,5.18-0.97,6.78-2.9
			c1.6-1.93,2.4-4.64,2.4-8.13v-7.44c0-3.49-0.8-6.18-2.4-8.09c-1.6-1.9-3.85-2.85-6.78-2.85c-2.89,0-5.15,0.95-6.76,2.85
			c-1.61,1.9-2.42,4.6-2.42,8.09v7.44c0,3.49,0.8,6.2,2.42,8.13C392.66,468.54,394.91,469.51,397.8,469.51z"/>
		<path class="st0" d="M434.53,432.36v27.29c0,3.14,0.76,5.57,2.27,7.29c1.52,1.72,3.65,2.57,6.41,2.57s4.88-0.77,6.37-2.31
			c1.49-1.54,2.23-3.71,2.23-6.51l0.57,9.38c-0.76,2.02-2.1,3.83-4.01,5.43c-1.91,1.6-4.41,2.4-7.49,2.4
			c-4.69,0-8.32-1.59-10.87-4.78c-2.55-3.19-3.83-7.68-3.83-13.47v-27.29H434.53z M451.81,477.25v-44.89h8.31v44.89H451.81z"/>
		<path class="st0" d="M469.54,451.15v-7.96h19.16v7.96H469.54z M483.87,477.46c-3.49,0-6.03-1.02-7.6-3.07
			c-1.57-2.05-2.35-4.99-2.35-8.82v-51.01h8.35v51.1c0,1.07,0.21,1.9,0.62,2.51c0.41,0.6,1.01,0.91,1.8,0.91h4.01v8.39H483.87z"/>
		<path class="st0" d="M515.2,477.9c-3.77,0-7.19-0.59-10.26-1.75c-3.07-1.17-5.82-2.92-8.25-5.25l4.95-6.44
			c2.32,1.85,4.61,3.23,6.86,4.15c2.25,0.92,4.48,1.38,6.7,1.38c3.3,0,5.78-0.54,7.43-1.62c1.65-1.08,2.48-2.7,2.48-4.86
			c0-1.67-0.55-2.85-1.66-3.55c-1.11-0.69-2.55-1.15-4.34-1.36c-1.79-0.22-3.71-0.4-5.75-0.54c-1.72-0.14-3.43-0.37-5.12-0.67
			c-1.69-0.3-3.23-0.85-4.63-1.64c-1.39-0.79-2.51-1.97-3.34-3.52c-0.83-1.56-1.25-3.65-1.25-6.27c0-4.76,1.38-8.32,4.14-10.68
			s6.87-3.55,12.32-3.55c3.33,0,6.43,0.47,9.29,1.43c2.87,0.95,5.56,2.41,8.07,4.37l-5.04,6.44c-2.13-1.44-4.23-2.52-6.29-3.24
			c-2.06-0.72-4.07-1.08-6.04-1.08c-2.84,0-4.97,0.51-6.39,1.53c-1.42,1.02-2.13,2.56-2.13,4.61c0,1.35,0.49,2.33,1.47,2.92
			c0.98,0.59,2.28,0.97,3.89,1.15c1.61,0.17,3.34,0.33,5.2,0.47c1.77,0.12,3.57,0.33,5.38,0.63c1.81,0.3,3.49,0.89,5.02,1.75
			c1.53,0.87,2.76,2.15,3.69,3.85c0.93,1.7,1.39,4.02,1.39,6.96c0,4.82-1.48,8.42-4.44,10.81C525.6,476.7,521.15,477.9,515.2,477.9z
			"/>
		<path class="st0" d="M543.66,423.19v-8.82h8.35v8.82H543.66z M543.66,477.25v-44.89h8.35v44.89H543.66z"/>
		<path class="st0" d="M578.17,478.03c-4.69,0-8.32-1.59-10.87-4.78c-2.55-3.18-3.83-7.67-3.83-13.47v-9.9
			c0-5.82,1.25-10.33,3.75-13.51c2.5-3.18,6.01-4.78,10.54-4.78c2.51,0,4.81,0.69,6.9,2.08c2.09,1.38,3.77,3.33,5.06,5.84
			l-0.86,9.17c0-1.9-0.33-3.53-0.98-4.89c-0.65-1.36-1.6-2.39-2.85-3.09c-1.24-0.71-2.75-1.06-4.52-1.06
			c-2.76,0-4.89,0.91-6.41,2.72c-1.51,1.82-2.27,4.37-2.27,7.66v9.77c0,3.26,0.76,5.77,2.27,7.54c1.51,1.77,3.65,2.66,6.41,2.66
			c1.77,0,3.28-0.37,4.52-1.1c1.24-0.74,2.19-1.8,2.85-3.18c0.66-1.38,0.98-3.04,0.98-4.97l0.57,9.47
			c-0.76,2.02-2.08,3.83-3.95,5.43C583.61,477.23,581.18,478.03,578.17,478.03z M588.86,477.25v-62.88h8.35v62.88H588.86z"/>
		<path class="st0" d="M627.31,477.9c-5.92,0-10.51-1.74-13.76-5.23c-3.25-3.49-4.87-8.45-4.87-14.87v-5.06
			c0-6.69,1.56-11.86,4.69-15.52c3.13-3.66,7.53-5.49,13.2-5.49c5.35,0,9.49,2.08,12.43,6.23c2.93,4.15,4.4,9.97,4.4,17.47v2.94
			h-28.66v-7.09h20.72c-0.25-3.63-1.14-6.47-2.68-8.52c-1.54-2.05-3.61-3.07-6.2-3.07c-3.14,0-5.58,1.09-7.33,3.29
			c-1.75,2.19-2.62,5.29-2.62,9.3v5.71c0,3.72,0.93,6.57,2.81,8.56c1.87,1.99,4.5,2.98,7.88,2.98c1.69,0,3.37-0.36,5.04-1.08
			c1.67-0.72,3.15-1.73,4.46-3.03l5.49,5.79c-2.1,2.13-4.46,3.78-7.08,4.95C632.59,477.31,629.96,477.9,627.31,477.9z"/>
		<path class="st0" d="M674.11,451.15v-7.96h19.16v7.96H674.11z M688.44,477.46c-3.49,0-6.03-1.02-7.6-3.07
			c-1.57-2.05-2.35-4.99-2.35-8.82v-51.01h8.35v51.1c0,1.07,0.21,1.9,0.62,2.51c0.41,0.6,1.01,0.91,1.8,0.91h4.01v8.39H688.44z"/>
		<path class="st0" d="M704.74,477.25v-62.88h8.35v62.88H704.74z M730.54,477.25v-27.2c0-3.17-0.77-5.62-2.31-7.35
			c-1.54-1.73-3.73-2.6-6.57-2.6c-2.73,0-4.84,0.75-6.33,2.25c-1.49,1.5-2.23,3.62-2.23,6.36l-0.86-8.65
			c1.31-2.65,3.02-4.71,5.14-6.16c2.12-1.46,4.46-2.18,7.02-2.18c4.61,0,8.18,1.59,10.71,4.78c2.52,3.18,3.79,7.69,3.79,13.51v27.24
			H730.54z"/>
		<path class="st0" d="M768.98,477.9c-5.92,0-10.51-1.74-13.76-5.23c-3.25-3.49-4.87-8.45-4.87-14.87v-5.06
			c0-6.69,1.56-11.86,4.69-15.52c3.13-3.66,7.53-5.49,13.2-5.49c5.35,0,9.49,2.08,12.43,6.23c2.93,4.15,4.4,9.97,4.4,17.47v2.94
			h-28.66v-7.09h20.72c-0.25-3.63-1.14-6.47-2.68-8.52c-1.54-2.05-3.61-3.07-6.2-3.07c-3.14,0-5.58,1.09-7.33,3.29
			c-1.75,2.19-2.62,5.29-2.62,9.3v5.71c0,3.72,0.93,6.57,2.8,8.56c1.87,1.99,4.5,2.98,7.88,2.98c1.69,0,3.37-0.36,5.04-1.08
			c1.67-0.72,3.15-1.73,4.46-3.03l5.49,5.79c-2.1,2.13-4.46,3.78-7.08,4.95C774.27,477.31,771.63,477.9,768.98,477.9z"/>
		<path class="st0" d="M819.06,477.25v-62.88h8.35v62.88H819.06z M838.1,477.9c-2.65,0-4.95-0.67-6.92-2.01
			c-1.97-1.34-3.41-3.24-4.34-5.69l0.57-9.38c0,1.93,0.33,3.58,0.98,4.93c0.66,1.35,1.6,2.39,2.85,3.11
			c1.24,0.72,2.75,1.08,4.52,1.08c2.76,0,4.89-0.89,6.41-2.66c1.51-1.77,2.27-4.27,2.27-7.5v-9.73c0-3.29-0.76-5.84-2.27-7.66
			c-1.51-1.82-3.65-2.72-6.41-2.72c-1.77,0-3.28,0.35-4.52,1.04c-1.24,0.69-2.19,1.7-2.85,3.03c-0.66,1.33-0.98,2.94-0.98,4.84
			l-0.86-8.65c1.28-2.62,2.96-4.65,5.04-6.08c2.07-1.43,4.38-2.14,6.92-2.14c4.56,0,8.08,1.59,10.56,4.78s3.73,7.69,3.73,13.51v9.77
			c0,5.74-1.28,10.19-3.85,13.36C846.39,476.31,842.77,477.9,838.1,477.9z"/>
		<path class="st0" d="M880.97,477.9c-5.57,0-9.88-1.71-12.94-5.12c-3.06-3.42-4.59-8.22-4.59-14.42v-7.31
			c0-6.14,1.53-10.9,4.59-14.27c3.06-3.37,7.37-5.06,12.94-5.06c5.57,0,9.88,1.69,12.94,5.06c3.06,3.37,4.59,8.13,4.59,14.27v7.44
			c0,6.17-1.53,10.95-4.59,14.34C890.85,476.2,886.54,477.9,880.97,477.9z M880.97,469.51c2.92,0,5.18-0.97,6.78-2.9
			c1.6-1.93,2.4-4.64,2.4-8.13v-7.44c0-3.49-0.8-6.18-2.4-8.09c-1.6-1.9-3.85-2.85-6.78-2.85c-2.89,0-5.15,0.95-6.76,2.85
			c-1.61,1.9-2.42,4.6-2.42,8.09v7.44c0,3.49,0.8,6.2,2.42,8.13C875.83,468.54,878.08,469.51,880.97,469.51z"/>
		<path class="st0" d="M905.05,477.25l16.05-24.78l4.01,8.13l-10.81,16.65H905.05z M934.04,477.25l-12.69-20.41l-15.64-24.48h9.3
			l12.2,20.11l16.09,24.78H934.04z M927.57,456.58l-3.52-8.3l9.3-15.91h9.3L927.57,456.58z"/>
	</g>
</g>
</svg>
